<svg width="13" height="15" viewBox="0 0 13 15" fill="none" xmlns="http://www.w3.org/2000/svg">
<path d="M10.7188 5.62499H10.25V3.74999C10.25 1.68187 8.56812 -7.62939e-06 6.5 -7.62939e-06C4.43187 -7.62939e-06 2.75 1.68187 2.75 3.74999V5.62499H2.28125C1.50625 5.62499 0.875 6.25562 0.875 7.03124V13.5937C0.875 14.3694 1.50625 15 2.28125 15H10.7188C11.4937 15 12.125 14.3694 12.125 13.5937V7.03124C12.125 6.25562 11.4937 5.62499 10.7188 5.62499ZM4 3.74999C4 2.37124 5.12125 1.24999 6.5 1.24999C7.87875 1.24999 9 2.37124 9 3.74999V5.62499H4V3.74999ZM7.125 10.4512V11.875C7.125 12.22 6.84562 12.5 6.5 12.5C6.15438 12.5 5.875 12.22 5.875 11.875V10.4512C5.50313 10.2344 5.25 9.83562 5.25 9.37499C5.25 8.68562 5.81063 8.12499 6.5 8.12499C7.18937 8.12499 7.75 8.68562 7.75 9.37499C7.75 9.83562 7.49687 10.2344 7.125 10.4512Z" fill="#313131"/>
</svg>
