<svg width="24" height="23" viewBox="0 0 24 23" fill="none" xmlns="http://www.w3.org/2000/svg">
<path d="M15.8304 0.0354776C14.471 0.354714 13.4079 1.47671 12.8941 3.13637C12.6541 3.91113 12.5491 4.87257 12.6279 5.57265C12.7816 6.95601 13.4379 8.04067 14.411 8.52793C14.9622 8.80423 15.5079 8.8509 16.0216 8.66981C16.3816 8.54286 16.8672 8.2591 17.1841 7.99027C18.026 7.27898 18.626 6.18312 18.851 4.94725C18.9279 4.52346 18.9466 4.30877 18.9447 3.83645C18.9447 2.93288 18.8172 2.27387 18.5341 1.68954C18.1029 0.800899 17.4204 0.218431 16.6085 0.0448112C16.3854 -0.00186062 16.0141 -0.00559425 15.8304 0.0354776Z" fill="#313131"/>
<path d="M7.16246 0.121368C6.41058 0.25205 5.70183 0.841985 5.27996 1.68768C5.04933 2.1488 4.94058 2.59125 4.89183 3.26893C4.86933 3.56577 4.88058 4.04182 4.91433 4.34052C5.10746 6.03565 5.90246 7.46382 7.10058 8.26285C7.34058 8.4234 7.73808 8.61942 8.00808 8.70903C8.19933 8.7725 8.24808 8.77997 8.45996 8.78931C8.74121 8.80051 8.94183 8.77437 9.18746 8.69596C9.56808 8.57461 9.87933 8.38419 10.1718 8.09296C10.7512 7.51609 11.1112 6.64612 11.1956 5.62307C11.2293 5.20116 11.1918 4.57388 11.1 4.08289C10.7325 2.09093 9.58308 0.616093 8.06058 0.179242C7.75683 0.0933657 7.44558 0.0728292 7.16246 0.121368Z" fill="#313131"/>
<path d="M21.3806 6.93361C20.1262 7.13897 19.0349 7.99961 18.3543 9.32323C18.0412 9.9337 17.8837 10.4303 17.7618 11.2032C17.7187 11.4795 17.7112 11.584 17.7112 11.9014C17.7112 12.2897 17.7337 12.482 17.8143 12.7956C18.0299 13.6376 18.5381 14.3228 19.1699 14.6271C19.5149 14.7932 19.8299 14.8548 20.1843 14.8231C21.0449 14.7484 21.8118 14.362 22.4943 13.66C23.2462 12.8852 23.7637 11.8137 23.9324 10.6879C23.9756 10.4079 24.0056 9.85529 23.9924 9.6294C23.9231 8.46819 23.2968 7.44701 22.4249 7.07363C22.0874 6.92988 21.7162 6.87947 21.3806 6.93361Z" fill="#313131"/>
<path d="M1.97045 7.42273C1.15483 7.55901 0.468579 8.12655 0.215453 8.87703C0.125453 9.14213 0.0504534 9.5211 0.0185784 9.86648C-0.0976716 11.1192 0.344828 12.5342 1.17733 13.5722C1.79983 14.347 2.60233 14.8828 3.50045 15.1236C4.25608 15.3252 4.93483 15.1348 5.51045 14.5617C6.0242 14.0502 6.28108 13.3034 6.28108 12.3196C6.28108 11.9368 6.26233 11.7278 6.19483 11.373C5.96608 10.1558 5.27233 8.99091 4.3217 8.22736C3.88483 7.87638 3.29608 7.55341 2.92483 7.46194C2.63233 7.38913 2.26295 7.37419 1.97045 7.42273Z" fill="#313131"/>
<path d="M11.6997 11.9761C11.0472 12.0489 10.4022 12.2225 9.76658 12.5007C8.79533 12.9282 7.85783 13.6395 7.25221 14.4123C5.94533 16.0813 5.03783 17.8885 4.66846 19.5556C4.64596 19.6583 4.60658 19.8132 4.58221 19.901C4.45658 20.3546 4.47721 20.8699 4.64033 21.3198C4.90283 22.0442 5.47096 22.6061 6.17408 22.8413C6.59408 22.9813 7.22221 22.9795 7.92158 22.8339C8.37721 22.7405 8.71846 22.6322 9.68596 22.2757C11.0322 21.7772 11.4053 21.682 12.311 21.598C12.716 21.5606 12.7891 21.5588 13.0685 21.5793C13.7828 21.6297 14.3472 21.7847 15.431 22.2252C16.391 22.6154 16.9272 22.8264 17.0622 22.8637C18.4122 23.2446 19.7528 22.776 20.2122 21.7623C20.4128 21.3161 20.4353 20.5899 20.2666 19.901C20.1016 19.2308 19.6122 18.1424 19.1435 17.4087C17.8216 15.3364 16.8785 14.1846 15.7872 13.3071C14.7616 12.4838 13.901 12.0937 12.8416 11.9761C12.5435 11.9425 12.0035 11.9425 11.6997 11.9761Z" fill="#313131"/>
</svg>
